<svg width="36" height="36" viewBox="0 0 36 36" fill="none" xmlns="http://www.w3.org/2000/svg">
<path d="M25.3288 27.3047L28.2665 32.1107C28.2997 32.1785 28.3292 32.2468 28.3556 32.3154C29.0855 34.2181 27.0686 36.0375 25.1896 35.2486C20.3965 33.2365 15.6035 33.2363 10.8107 35.2486C8.93139 36.0375 6.91454 34.2175 7.64495 32.3149C7.67139 32.2463 7.70092 32.1779 7.7341 32.1101L10.6734 27.3047H25.3288Z" fill="#58595B"/>
<path d="M20.5341 6.0075H20.5313C19.7269 5.77969 18.8775 5.65594 18 5.65594C17.1225 5.65594 16.2732 5.77969 15.4688 6.0075H15.466C12.78 4.46625 12.9375 1.47938 12.9375 1.47938C14.5125 0.885938 16.2169 0.5625 18 0.5625C19.7832 0.5625 21.4875 0.885938 23.0625 1.47938C23.0625 1.47938 23.22 4.46625 20.5341 6.0075Z" fill="#A7A9AC"/>
<path d="M32.3746 14.9373C32.3746 22.8742 25.9396 29.312 17.9999 29.312C10.0602 29.312 3.62524 22.8742 3.62524 14.9373C3.62524 8.78074 7.49524 3.52699 12.9374 1.47949C12.9374 1.47949 12.7799 4.46637 15.4659 6.00762H15.4687C16.2731 5.7798 17.1224 5.65605 17.9999 5.65605C18.8774 5.65605 19.7268 5.7798 20.5312 6.00762H20.534C23.2199 4.46637 23.0624 1.47949 23.0624 1.47949C28.5046 3.52699 32.3746 8.78074 32.3746 14.9373Z" fill="#D1D3D4"/>
<path d="M27.2783 14.9373C27.2783 20.0532 23.1158 24.2157 17.9999 24.2157C12.8839 24.2157 8.72144 20.0532 8.72144 14.9373C8.72144 10.6988 11.5761 7.11288 15.4658 6.00757H15.4686C16.273 5.77976 17.1224 5.65601 17.9999 5.65601C18.8774 5.65601 19.7267 5.77976 20.5311 6.00757H20.5339C24.4236 7.11288 27.2783 10.6988 27.2783 14.9373Z" fill="#58595B"/>
<path d="M17.9999 21.9657C14.1242 21.9657 10.9714 18.8129 10.9714 14.9373C10.9714 11.8362 13.0358 9.07544 16.0022 8.19485L16.0817 8.17235C16.7058 7.99572 17.351 7.90601 17.9999 7.90601C18.6487 7.90601 19.2939 7.99572 19.918 8.17235L20.0114 8.19879C22.9701 9.08388 25.0283 11.841 25.0283 14.937C25.0283 18.8129 21.8755 21.9657 17.9999 21.9657Z" fill="#6D6E71"/>
<path d="M18 18.7337C15.9061 18.7337 14.2029 17.0304 14.2029 14.9368C14.2029 12.8429 15.9061 11.1396 18 11.1396C20.0939 11.1396 21.7972 12.8429 21.7972 14.9368C21.7972 17.0301 20.0939 18.7337 18 18.7337Z" fill="#59B6D3"/>
<path d="M17.9998 2.28882C17.5183 2.28882 17.1277 2.67919 17.1277 3.16097C17.1277 3.64276 17.5181 4.03313 17.9998 4.03313C18.4813 4.03313 18.872 3.64276 18.872 3.16097C18.872 2.67919 18.4813 2.28882 17.9998 2.28882Z" fill="#E85D5D"/>
</svg>
