<svg width="231" height="116" viewBox="0 0 231 116" fill="none" xmlns="http://www.w3.org/2000/svg">
<g clip-path="url(#clip0_2195_127)">
<path d="M225.456 0.255127H6.21387V113.564H225.456V0.255127Z" fill="white"/>
<path d="M107.461 73.6366L94.3403 67.187L60.776 88.9718L58.466 105.606L50.4272 113.587H107.438L97.5281 96.9758L107.461 73.6366Z" fill="#F5D033"/>
<path d="M137.491 113.587H163.687L170.363 99.5512L148.256 96.2104L137.491 113.587Z" fill="#F5D033"/>
<path d="M52.668 9.14073L43.428 3.47993L45.6225 0.255127H106.075L117.602 8.11993L147.794 6.14793L160.73 30.6703L164.333 29.8583C163.987 31.4823 163.802 33.1527 163.779 34.8463L155.648 34.1735L135.297 41.2495L120.466 26.6335L120.212 26.7727L80.2494 9.14073H52.668Z" fill="#F5D033"/>
<path d="M108.685 71.6879L94.2018 64.5655L58.674 87.6031L56.3178 104.516L47.1702 113.564H22.7073L24.3243 91.0367L37.9995 76.3743L33.8415 54.3575L52.8759 43.4999L86.8791 47.4903L120.004 29.4175L134.627 43.8247L155.856 36.4471L163.779 37.0967C164.079 41.2727 165.373 45.1935 167.429 48.5807L158.42 57.1647L122.499 56.1903L108.685 71.6879Z" fill="#F5D033"/>
<path d="M118.226 5.79992L110.118 0.27832H162.208L163.225 5.49832L172.857 15.4279C169.231 18.5599 166.459 22.6895 164.98 27.3991L161.931 28.0719L149.11 3.75832L118.226 5.79992Z" fill="#F5D033"/>
<path d="M171.402 97.3703L147.124 93.7279L134.812 113.587H110.118L100.092 96.8135L109.933 73.7295L123.562 58.5799L159.39 59.5543L168.792 50.5991C170.871 53.4527 173.504 55.8655 176.53 57.6751L170.917 71.0383L174.243 91.5007L171.402 97.3703Z" fill="#F5D033"/>
<path d="M165.327 4.36153L164.541 0.255127H200.346V4.26873C196.211 6.72793 193.717 8.25913 192.238 9.23353C191.43 9.16393 190.621 9.11753 189.79 9.11753C184.153 9.11753 178.933 10.9271 174.659 13.9895L165.327 4.36153Z" fill="#F5D033"/>
<path d="M213.998 60.1807L198.105 65.7023L200.392 90.4335L210.533 113.587H166.204L176.576 91.8255L173.25 71.3167L178.517 58.7655C181.912 60.4127 185.724 61.3407 189.766 61.3407C198.013 61.3407 205.382 57.4663 210.141 51.4343L213.998 60.1807Z" fill="#F5D033"/>
<path d="M225.479 0.255127V19.4879L219.358 23.3855L213.536 14.9639L208.639 17.2375C205.197 13.5719 200.693 10.9271 195.657 9.74393C197.644 8.51433 200.092 7.02953 202.056 5.86953L202.61 5.54473V0.255127H225.479Z" fill="#F5D033"/>
<path d="M218.711 26.5176L225.456 22.2024V60.8304L216.308 59.7864L211.665 49.2536C214.253 45.1936 215.754 40.368 215.754 35.2176C215.754 29.116 213.675 23.5248 210.164 19.0704L212.728 17.8872L218.711 26.5176Z" fill="#F5D033"/>
<path d="M22.1298 90.0622L35.5509 75.6782L31.7625 55.587L24.6477 59.6238L6.21387 54.3342V113.587H20.4204L22.1298 90.0622Z" fill="#F5D033"/>
<path d="M215.662 62.0134L200.531 67.2798L202.61 89.8534L213.005 113.587H225.479V63.1502L215.662 62.0134Z" fill="#F5D033"/>
<path d="M52.437 41.1799L86.4633 45.1703L117.648 28.1647L79.7412 11.4375H52.0443L42.1344 5.38232L39.4317 9.32632H30.954L10.2333 22.8983L6.21387 20.3231V51.9447L24.3705 57.1647L52.437 41.1799Z" fill="#F5D033"/>
<path d="M10.2102 20.1607L30.2841 7.05273H38.2305L42.8505 0.255127H6.21387V17.6087L10.2102 20.1607Z" fill="#F5D033"/>
<path d="M163.825 37.1664C163.779 36.5168 163.756 35.8672 163.756 35.2176C163.756 35.1016 163.756 34.9856 163.756 34.8464L163.825 37.1664Z" fill="white"/>
<path d="M209.471 23.7799C211.989 28.1647 212.913 33.0599 212.381 37.7463C210.118 34.4751 206.167 32.5959 201.363 32.5263C201.247 32.2943 201.132 32.0391 200.993 31.8071C200.138 30.3223 198.845 29.1391 197.251 28.3967C197.436 27.9095 197.528 27.3759 197.528 26.8423C197.528 26.0767 197.32 25.3575 196.974 24.7543C196.396 23.7335 195.38 23.0607 194.248 23.0607C193.462 23.0607 192.7 23.3855 192.1 23.9887C191.383 24.7079 190.968 25.7519 190.968 26.8423C190.968 27.0743 190.991 27.3063 191.014 27.5383C189.374 27.7703 187.734 28.3503 186.255 29.2087C184.777 30.0671 183.46 31.2039 182.444 32.5263C182.259 32.3871 182.074 32.2479 181.889 32.1319C180.088 31.0879 177.893 31.5287 176.992 33.0831C176.091 34.6607 176.83 36.7719 178.609 37.8159C179.071 38.0943 179.579 38.2567 180.088 38.3495C179.949 40.1359 180.319 41.8295 181.173 43.3143C181.312 43.5463 181.45 43.7783 181.612 43.9871C179.279 48.2095 178.933 52.5943 180.619 56.1903C176.322 54.3111 172.557 51.0631 170.039 46.6783C163.756 35.7511 167.475 21.7615 178.378 15.4511C189.281 9.14066 203.188 12.8527 209.471 23.7799Z" fill="#008E39"/>
<path d="M40.9332 57.1879V43.5927H36.4749V57.1879H19.1499V13.2471H36.4518V26.1927H40.9101V13.2471H58.212V57.1647H40.9332V57.1879Z" fill="#4E5754"/>
<path d="M63.3401 57.1879V13.2471H80.642V57.1647H63.3401V57.1879Z" fill="#4E5754"/>
<path d="M105.428 49.4855H103.072V57.1879H85.7703V13.2471H105.428C115.384 13.2471 123.493 21.3903 123.493 31.3895C123.493 41.3423 115.384 49.4855 105.428 49.4855ZM105.428 29.2783H103.072V33.3847H105.428C106.583 33.3847 107.461 32.4799 107.461 31.3431C107.461 30.2527 106.583 29.2783 105.428 29.2783Z" fill="#4E5754"/>
<path d="M146.361 49.4855H144.005V57.1879H126.703V13.2471H146.361C156.318 13.2471 164.426 21.3903 164.426 31.3895C164.426 41.3423 156.318 49.4855 146.361 49.4855ZM146.361 29.2783H144.005V33.3847H146.361C147.516 33.3847 148.394 32.4799 148.394 31.3431C148.394 30.2527 147.516 29.2783 146.361 29.2783Z" fill="#4E5754"/>
<path d="M22.7073 37.6768C23.6544 36.8648 24.3705 36.192 24.9249 35.6816C25.4562 35.148 25.9182 34.6144 26.2878 34.0344C26.6574 33.4776 26.8191 32.8976 26.8191 32.3408C26.8191 31.7608 26.6805 31.2968 26.4033 30.9488C26.1261 30.624 25.6872 30.4384 25.0866 30.4384C24.5091 30.4384 24.0702 30.624 23.7468 30.9952C23.4234 31.3664 23.2617 31.8536 23.2386 32.48H21.6216C21.6447 31.3664 21.9912 30.508 22.6149 29.928C23.2617 29.3248 24.0702 29.0464 25.0404 29.0464C26.103 29.0464 26.9346 29.348 27.5352 29.928C28.1358 30.508 28.4361 31.2968 28.4361 32.2712C28.4361 32.9672 28.2513 33.6632 27.9048 34.3128C27.5583 34.9624 27.1194 35.5424 26.6343 36.0528C26.1492 36.5632 25.5255 37.1664 24.7632 37.8392L24.1164 38.4192H28.7595V39.8112H21.6447V38.5816L22.7073 37.6768Z" fill="white"/>
<path d="M31.0695 30.4848C31.647 29.5336 32.6172 29.0464 34.0263 29.0464C35.4123 29.0464 36.4056 29.5336 36.9831 30.4848C37.5606 31.436 37.8378 32.7584 37.8378 34.452C37.8378 36.1688 37.5606 37.5144 36.9831 38.4656C36.4056 39.44 35.4354 39.904 34.0263 39.904C32.6403 39.904 31.647 39.4168 31.0695 38.4656C30.492 37.4912 30.2148 36.1688 30.2148 34.452C30.2148 32.7816 30.492 31.436 31.0695 30.4848ZM36.036 32.4568C35.9436 31.9 35.7357 31.4592 35.4123 31.1112C35.0889 30.7632 34.6269 30.6008 34.0263 30.6008C33.4026 30.6008 32.9406 30.7864 32.6403 31.1112C32.3169 31.4592 32.1321 31.9 32.0166 32.4568C31.9242 33.0136 31.8549 33.6864 31.8549 34.4752C31.8549 35.2872 31.9011 35.9832 31.9935 36.54C32.0859 37.0968 32.2938 37.5376 32.6172 37.8856C32.9406 38.2336 33.4026 38.396 34.0032 38.396C34.6269 38.396 35.0889 38.2336 35.3892 37.8856C35.7126 37.5376 35.9205 37.0968 36.0129 36.54C36.1053 35.9832 36.1515 35.2872 36.1515 34.4752C36.1746 33.6632 36.1284 32.9904 36.036 32.4568Z" fill="white"/>
<path d="M40.5173 37.6768C41.4644 36.8648 42.1805 36.192 42.7349 35.6816C43.2662 35.148 43.7282 34.6144 44.0978 34.0344C44.4674 33.4776 44.6291 32.8976 44.6291 32.3408C44.6291 31.7608 44.4905 31.2968 44.2133 30.9488C43.9361 30.624 43.4972 30.4384 42.8966 30.4384C42.3191 30.4384 41.8802 30.624 41.5568 30.9952C41.2334 31.3664 41.0717 31.8536 41.0486 32.48H39.4316C39.4547 31.3664 39.8012 30.508 40.4249 29.928C41.0717 29.3248 41.8802 29.0464 42.8504 29.0464C43.913 29.0464 44.7446 29.348 45.3452 29.928C45.9458 30.508 46.2461 31.2968 46.2461 32.2712C46.2461 32.9672 46.0613 33.6632 45.7148 34.3128C45.3683 34.9624 44.9294 35.5424 44.4443 36.0528C43.9592 36.5632 43.3355 37.1664 42.5732 37.8392L41.9264 38.4192H46.5695V39.8112H39.4547V38.5816L40.5173 37.6768Z" fill="white"/>
<path d="M54.9087 30.6935H50.0115V33.6167C50.2194 33.3383 50.5197 33.1063 50.9355 32.9207C51.3513 32.7351 51.7671 32.6423 52.2291 32.6423C53.0376 32.6423 53.7075 32.8279 54.2157 33.1759C54.7239 33.5239 55.0935 33.9647 55.3014 34.5215C55.5093 35.0551 55.6248 35.6351 55.6248 36.2151C55.6248 36.9343 55.4862 37.5839 55.209 38.1407C54.9318 38.6975 54.516 39.1383 53.9616 39.4631C53.4072 39.7879 52.7373 39.9503 51.9288 39.9503C50.8662 39.9503 50.0115 39.6951 49.3647 39.1615C48.7179 38.6279 48.3252 37.9319 48.2097 37.0503H49.8267C49.9422 37.5143 50.1732 37.8855 50.5428 38.1407C50.9124 38.4191 51.3744 38.5351 51.9288 38.5351C52.6218 38.5351 53.13 38.3263 53.4765 37.9087C53.823 37.4911 53.9847 36.9343 53.9847 36.2383C53.9847 35.5423 53.7999 34.9855 53.4534 34.6143C53.1069 34.2431 52.5756 34.0575 51.9057 34.0575C51.4206 34.0575 51.0279 34.1735 50.7045 34.4287C50.3811 34.6607 50.1501 34.9855 49.9884 35.4031H48.4176V29.2319H54.8625V30.6935H54.9087Z" fill="white"/>
<path d="M20.1894 63.9392V67.8368H24.1164V68.6952H20.1894V72.6392H24.5553V73.4976H19.1499V63.0576H24.5553V63.916H20.1894V63.9392Z" fill="#4E5754"/>
<path d="M34.8116 73.4976H33.7721L28.0202 64.728V73.4976H26.9807V63.104H28.0202L33.7721 71.8504V63.104H34.8116V73.4976Z" fill="#4E5754"/>
<path d="M45.6918 66.1432C45.3915 65.4472 44.9526 64.9136 44.3289 64.5192C43.7283 64.1248 43.0122 63.9392 42.1806 63.9392C41.4183 63.9392 40.7253 64.1248 40.1016 64.4728C39.4779 64.8208 38.9928 65.3312 38.6463 66.004C38.2998 66.6536 38.115 67.4424 38.115 68.3008C38.115 69.1824 38.2998 69.948 38.6463 70.6208C38.9928 71.2936 39.4779 71.804 40.1016 72.152C40.7253 72.5 41.4183 72.6856 42.1806 72.6856C42.8967 72.6856 43.5435 72.5232 44.121 72.2216C44.6985 71.92 45.1605 71.456 45.507 70.876C45.8535 70.296 46.0614 69.6232 46.1076 68.8344H41.7417V67.976H47.1933V68.7416C47.1471 69.6464 46.893 70.4816 46.4541 71.224C46.0152 71.9664 45.4146 72.5464 44.6754 72.964C43.9362 73.3816 43.0815 73.6136 42.1575 73.6136C41.1873 73.6136 40.3326 73.3816 39.5472 72.9408C38.7618 72.5 38.1612 71.8504 37.6992 71.0384C37.2603 70.2264 37.0293 69.3216 37.0293 68.3008C37.0293 67.28 37.2603 66.352 37.6992 65.5632C38.1381 64.7512 38.7618 64.1248 39.5472 63.6608C40.3326 63.22 41.2104 62.988 42.1575 62.988C43.2663 62.988 44.2365 63.2664 45.0681 63.8232C45.8997 64.38 46.5003 65.1456 46.8699 66.1432H45.6918Z" fill="#4E5754"/>
<path d="M50.5429 72.6624H54.262V73.5208H49.5034V63.104H50.5429V72.6624Z" fill="#4E5754"/>
<path d="M57.1726 63.104V73.5208H56.1331V63.104H57.1726Z" fill="#4E5754"/>
<path d="M61.2382 73.2656C60.73 73.0336 60.3142 72.6856 60.0139 72.268C59.7136 71.8504 59.5519 71.3632 59.5288 70.8296H60.6376C60.6838 71.34 60.9148 71.7808 61.3075 72.152C61.7002 72.5464 62.2777 72.732 63.04 72.732C63.733 72.732 64.2874 72.5464 64.7032 72.1984C65.119 71.8272 65.3269 71.3864 65.3269 70.8296C65.3269 70.3888 65.2114 70.0176 64.9804 69.7392C64.7494 69.4608 64.4722 69.252 64.1257 69.136C63.7792 68.9968 63.3172 68.8576 62.7397 68.6952C62.0467 68.5096 61.4923 68.324 61.0996 68.1384C60.6838 67.9528 60.3373 67.6744 60.0601 67.3032C59.7829 66.932 59.6212 66.4216 59.6212 65.772C59.6212 65.2384 59.7598 64.7512 60.037 64.3336C60.3142 63.916 60.7069 63.5912 61.2151 63.336C61.7233 63.104 62.3008 62.988 62.9476 62.988C63.9178 62.988 64.6801 63.22 65.2807 63.7072C65.8582 64.1712 66.2047 64.7976 66.2971 65.54H65.1652C65.0959 65.1224 64.8649 64.728 64.4722 64.4032C64.0795 64.0784 63.5482 63.8928 62.8783 63.8928C62.2546 63.8928 61.7464 64.0552 61.3306 64.4032C60.9148 64.728 60.7069 65.192 60.7069 65.772C60.7069 66.2128 60.8224 66.5608 61.0534 66.8392C61.2844 67.1176 61.5616 67.3032 61.9081 67.4424C62.2546 67.5816 62.7166 67.7208 63.2941 67.8832C63.964 68.0688 64.5184 68.2544 64.9342 68.44C65.35 68.6256 65.6965 68.904 65.9968 69.2752C66.274 69.6464 66.4357 70.1568 66.4357 70.8064C66.4357 71.2936 66.2971 71.7576 66.043 72.1984C65.7889 72.6392 65.3962 72.9872 64.9111 73.2656C64.4029 73.544 63.8023 73.66 63.1093 73.66C62.3701 73.6136 61.7695 73.4976 61.2382 73.2656Z" fill="#4E5754"/>
<path d="M76.4611 63.104V73.5208H75.4216V68.6488H69.8083V73.5208H68.7688V63.104H69.8083V67.7904H75.4216V63.104H76.4611Z" fill="#4E5754"/>
<path d="M92.1458 63.1272L89.1428 73.5208H87.6182L85.2158 65.1688L82.721 73.5208L81.2195 73.544L78.332 63.1504H79.7642L82.028 71.9664L84.5228 63.1504H86.0474L88.4267 71.92L90.6905 63.1504H92.1458V63.1272Z" fill="#008E39"/>
<path d="M95.3569 63.1272V73.5208H94.0171V63.1272H95.3569Z" fill="#008E39"/>
<path d="M104.389 63.1272V64.2408H101.571V73.5208H100.231V64.2408H97.3896V63.1272H104.389Z" fill="#008E39"/>
<path d="M114.391 63.1272V73.5208H113.051V68.8112H107.785V73.5208H106.445V63.1272H107.785V67.6976H113.051V63.1272H114.391Z" fill="#008E39"/>
<path d="M119.127 72.9408C118.341 72.5 117.717 71.8504 117.255 71.0384C116.793 70.2264 116.562 69.3216 116.562 68.3008C116.562 67.28 116.793 66.3752 117.255 65.5632C117.717 64.7512 118.341 64.1248 119.127 63.6608C119.912 63.22 120.79 62.988 121.76 62.988C122.73 62.988 123.608 63.22 124.393 63.6608C125.179 64.1016 125.803 64.7512 126.265 65.54C126.727 66.352 126.958 67.2568 126.958 68.2776C126.958 69.2984 126.727 70.2032 126.265 71.0152C125.803 71.8272 125.179 72.4536 124.393 72.8944C123.608 73.3352 122.73 73.5672 121.76 73.5672C120.79 73.6136 119.912 73.3816 119.127 72.9408ZM123.7 71.92C124.278 71.572 124.74 71.108 125.063 70.4816C125.387 69.8552 125.572 69.136 125.572 68.3008C125.572 67.4656 125.41 66.7464 125.063 66.12C124.74 65.4936 124.278 65.0296 123.7 64.6816C123.123 64.3336 122.476 64.1712 121.737 64.1712C120.998 64.1712 120.351 64.3336 119.773 64.6816C119.196 65.0296 118.757 65.4936 118.41 66.12C118.087 66.7464 117.902 67.4656 117.902 68.3008C117.902 69.136 118.064 69.8552 118.41 70.4816C118.734 71.108 119.196 71.5952 119.773 71.92C120.351 72.268 120.998 72.4304 121.714 72.4304C122.476 72.4304 123.123 72.268 123.7 71.92Z" fill="#008E39"/>
<path d="M130.423 63.1272V69.6928C130.423 70.6208 130.654 71.2936 131.093 71.7576C131.532 72.1984 132.178 72.4304 132.964 72.4304C133.749 72.4304 134.373 72.1984 134.835 71.7576C135.297 71.3168 135.505 70.6208 135.505 69.6928V63.1272H136.845V69.6928C136.845 70.5512 136.683 71.2936 136.336 71.8736C135.99 72.4536 135.528 72.8944 134.927 73.196C134.35 73.4744 133.68 73.6368 132.941 73.6368C132.201 73.6368 131.555 73.4976 130.954 73.196C130.377 72.9176 129.891 72.4768 129.568 71.8736C129.222 71.2936 129.06 70.5512 129.06 69.6928V63.1272H130.423Z" fill="#008E39"/>
<path d="M145.853 63.1272V64.2408H143.035V73.5208H141.695V64.2408H138.831V63.1272H145.853Z" fill="#008E39"/>
<path d="M154.262 69.02C154.678 69.5072 154.862 70.064 154.862 70.7136C154.862 71.2472 154.724 71.7112 154.47 72.1288C154.216 72.5464 153.823 72.8944 153.315 73.1264C152.806 73.3584 152.206 73.4976 151.513 73.4976H147.932V63.104H151.42C152.46 63.104 153.268 63.336 153.823 63.8232C154.377 64.3104 154.654 64.9368 154.654 65.7256C154.654 66.3752 154.47 66.8856 154.146 67.3032C153.8 67.6976 153.361 67.976 152.806 68.1384C153.361 68.2312 153.846 68.5328 154.262 69.02ZM148.949 67.6976H151.374C152.067 67.6976 152.622 67.5352 152.991 67.1872C153.361 66.8624 153.569 66.3984 153.569 65.8184C153.569 65.2384 153.384 64.7976 152.991 64.4728C152.622 64.148 152.044 63.9856 151.328 63.9856H148.949V67.6976ZM153.199 72.0824C153.615 71.7344 153.823 71.224 153.823 70.5976C153.823 69.9712 153.592 69.484 153.153 69.0896C152.714 68.7184 152.113 68.5328 151.374 68.5328H148.949V72.5928H151.42C152.183 72.6392 152.783 72.4536 153.199 72.0824Z" fill="#4E5754"/>
<path d="M159.205 72.9408C158.42 72.5 157.819 71.8504 157.357 71.0384C156.918 70.2264 156.687 69.3216 156.687 68.3008C156.687 67.28 156.918 66.352 157.357 65.5632C157.796 64.7512 158.42 64.1248 159.205 63.6608C159.991 63.22 160.868 62.988 161.815 62.988C162.786 62.988 163.663 63.22 164.449 63.6608C165.234 64.1016 165.835 64.7512 166.297 65.5632C166.736 66.3752 166.967 67.28 166.967 68.3008C166.967 69.3216 166.736 70.2496 166.297 71.0384C165.858 71.8504 165.234 72.4768 164.449 72.9408C163.663 73.3816 162.786 73.6136 161.815 73.6136C160.845 73.6136 159.967 73.3816 159.205 72.9408ZM163.894 72.1752C164.518 71.8272 165.003 71.2936 165.35 70.644C165.696 69.9712 165.881 69.2056 165.881 68.3008C165.881 67.4192 165.696 66.6304 165.35 65.9808C165.003 65.308 164.518 64.7976 163.894 64.4496C163.271 64.1016 162.578 63.916 161.815 63.916C161.053 63.916 160.36 64.1016 159.736 64.4496C159.113 64.7976 158.628 65.308 158.281 65.9808C157.935 66.6536 157.75 67.4192 157.75 68.3008C157.75 69.1824 157.935 69.9712 158.281 70.644C158.628 71.3168 159.113 71.8272 159.736 72.1752C160.36 72.5232 161.053 72.7088 161.815 72.7088C162.578 72.7088 163.271 72.5232 163.894 72.1752Z" fill="#4E5754"/>
<path d="M174.728 73.4976L172.164 69.136H170.247V73.4976H169.208V63.104H172.326C173.481 63.104 174.359 63.3824 174.959 63.9392C175.56 64.496 175.86 65.2152 175.86 66.12C175.86 66.8856 175.652 67.512 175.214 68.0456C174.775 68.5792 174.151 68.9272 173.296 69.0896L175.976 73.5208H174.728V73.4976ZM170.247 68.3008H172.349C173.158 68.3008 173.781 68.092 174.174 67.6976C174.59 67.3032 174.798 66.7696 174.798 66.0968C174.798 65.4008 174.59 64.8904 174.197 64.5192C173.804 64.148 173.181 63.9624 172.326 63.9624H170.247V68.3008Z" fill="#4E5754"/>
<path d="M184.315 63.7072C185.147 64.1248 185.77 64.728 186.209 65.5168C186.648 66.3056 186.856 67.2336 186.856 68.324C186.856 69.3912 186.648 70.3192 186.209 71.108C185.77 71.8968 185.147 72.4768 184.315 72.8944C183.483 73.312 182.513 73.5208 181.358 73.5208H178.286V63.104H181.358C182.513 63.104 183.483 63.2896 184.315 63.7072ZM184.661 71.5024C185.424 70.7368 185.793 69.6928 185.793 68.324C185.793 66.9552 185.424 65.888 184.661 65.1224C183.899 64.3568 182.813 63.9624 181.358 63.9624H179.325V72.6392H181.358C182.813 72.6392 183.899 72.268 184.661 71.5024Z" fill="#4E5754"/>
<path d="M190.182 63.9392V67.8368H194.109V68.6952H190.182V72.6392H194.548V73.4976H189.143V63.0576H194.548V63.916H190.182V63.9392Z" fill="#4E5754"/>
<path d="M202.495 73.4976L199.93 69.136H198.013V73.4976H196.974V63.104H200.092C201.247 63.104 202.125 63.3824 202.726 63.9392C203.326 64.496 203.626 65.2152 203.626 66.12C203.626 66.8856 203.419 67.512 202.98 68.0456C202.541 68.5792 201.917 68.9272 201.062 69.0896L203.742 73.5208H202.495V73.4976ZM198.013 68.3008H200.115C200.924 68.3008 201.547 68.092 201.94 67.6976C202.356 67.3032 202.564 66.7696 202.564 66.0968C202.564 65.4008 202.356 64.8904 201.963 64.5192C201.571 64.148 200.947 63.9624 200.092 63.9624H198.013V68.3008Z" fill="#4E5754"/>
<path d="M207.392 73.2656C206.884 73.0336 206.468 72.6856 206.167 72.268C205.867 71.8504 205.705 71.3632 205.682 70.8296H206.791C206.837 71.34 207.068 71.7808 207.461 72.152C207.854 72.5464 208.431 72.732 209.194 72.732C209.887 72.732 210.441 72.5464 210.857 72.1984C211.273 71.8272 211.48 71.3864 211.48 70.8296C211.48 70.3888 211.365 70.0176 211.134 69.7392C210.903 69.4608 210.626 69.252 210.279 69.136C209.933 68.9968 209.471 68.8576 208.893 68.6952C208.2 68.5096 207.646 68.324 207.253 68.1384C206.837 67.9528 206.491 67.6744 206.214 67.3032C205.936 66.932 205.775 66.4216 205.775 65.772C205.775 65.2384 205.913 64.7512 206.191 64.3336C206.468 63.916 206.86 63.5912 207.369 63.336C207.877 63.104 208.454 62.988 209.101 62.988C210.071 62.988 210.834 63.22 211.434 63.7072C212.012 64.1712 212.358 64.7976 212.451 65.54H211.319C211.249 65.1224 211.018 64.728 210.626 64.4032C210.233 64.0784 209.702 63.8928 209.032 63.8928C208.408 63.8928 207.9 64.0552 207.484 64.4032C207.068 64.728 206.86 65.192 206.86 65.772C206.86 66.2128 206.976 66.5608 207.207 66.8392C207.438 67.1176 207.715 67.3032 208.062 67.4424C208.408 67.5816 208.87 67.7208 209.448 67.8832C210.118 68.0688 210.672 68.2544 211.088 68.44C211.504 68.6256 211.85 68.904 212.15 69.2752C212.381 69.6232 212.52 70.1336 212.52 70.76C212.52 71.2472 212.381 71.7112 212.127 72.152C211.873 72.5928 211.48 72.9408 210.995 73.2192C210.487 73.4976 209.887 73.6136 209.194 73.6136C208.501 73.6136 207.9 73.4976 207.392 73.2656Z" fill="#4E5754"/>
<path d="M24.6938 104.516C24.9248 104.469 25.0172 104.377 25.1327 104.261C26.0336 103.449 26.7728 102.497 27.512 101.569C28.6208 100.224 29.7527 98.9247 30.9077 97.6487C31.208 97.3471 31.4621 97.0223 31.8086 96.7439C32.0627 96.5583 32.363 96.3959 32.7095 96.3959C33.1484 96.3495 33.4487 96.6975 33.3332 97.1383C33.2639 97.4399 33.1022 97.6951 32.9174 97.9271C32.2937 98.7855 31.6238 99.6207 30.9539 100.479C29.7296 102.057 28.3898 103.588 27.1655 105.142C26.6111 105.861 25.9412 106.488 25.0865 106.859C24.0008 107.346 22.9382 107.393 21.8063 106.929C21.1826 106.673 20.7206 106.209 20.3972 105.583C19.7735 104.353 19.5887 103.008 19.6811 101.616C19.9121 99.4351 20.3972 97.3935 21.0209 95.3287C21.4367 94.0295 21.6446 92.6839 22.0373 91.3615C23.3078 86.9071 23.9315 84.8191 24.5321 82.7311C24.6707 82.2439 24.6707 82.3135 24.1625 82.3135C8.33901 82.6151 6.9299 83.0327 5.5439 83.5895C5.0126 83.8215 4.5044 84.0767 4.0655 84.4015C3.8114 84.5871 3.8114 84.6335 4.0193 84.8423C4.2734 85.0975 4.2503 85.2599 3.9731 85.4687C3.719 85.7007 3.3725 85.7703 3.0491 85.7703C2.0327 85.6543 1.178 85.2367 0.508105 84.4943C-0.0924954 83.8215 -0.161795 83.1951 0.254005 82.4295C0.600505 81.8031 1.0625 81.3391 1.64 80.9447C2.4947 80.3415 3.4649 79.9239 4.4351 79.6455C5.8211 79.2743 7.184 79.0887 8.6162 78.9727C9.4247 78.9263 10.2563 78.9263 25.4561 78.9263C25.7564 78.9263 25.9412 78.8567 26.0567 78.5087C26.4263 77.6039 28.5053 73.5439 28.5053 73.5439C28.7363 73.1263 29.0366 72.7319 29.36 72.3839C29.6603 72.0823 29.9606 71.8967 30.3302 71.7807C31.1387 71.5487 32.0165 71.5487 32.7788 71.8503C33.5873 72.1055 33.8876 72.6391 33.7952 73.4511C33.6797 74.3095 33.4256 75.1447 33.0791 75.9103L32.2937 77.9287C32.1782 78.1839 32.0627 78.4623 31.9934 78.6711C31.8548 79.0887 31.8548 79.1119 32.2937 79.1583C32.6633 79.2047 33.0098 79.2743 33.3794 79.2743C47.0084 79.2279 48.5792 79.5063 50.0576 80.0167C50.7275 80.2719 51.3974 80.6199 51.998 81.0607C52.2521 81.2927 52.5293 81.5479 52.7141 81.8495C53.0837 82.5223 52.7834 83.0791 51.998 83.1255C51.6284 83.1719 51.2588 83.0791 50.9123 82.8935C49.8959 82.2671 48.7409 82.1743 47.6321 82.0351C34.1879 82.1047 32.8019 82.0351 31.4621 81.9655C30.7229 81.9191 30.8384 81.8959 30.6074 82.5223C29.2676 86.5127 27.3734 92.8463 26.1491 96.8367C25.7333 98.2519 25.2944 99.6439 25.0403 101.059C24.9017 101.987 24.7862 102.892 24.7169 103.797C24.6476 104.075 24.6476 104.307 24.6938 104.516Z" fill="#006633"/>
<path d="M38.577 93.4495C39.0159 92.9159 39.4317 92.3591 39.8706 91.8719C41.2566 90.2943 42.6657 88.8095 44.3751 87.5799C45.1836 86.9767 46.0614 86.5359 47.1009 86.3735C47.8863 86.2575 48.6717 86.3271 49.4571 86.6287C50.358 86.9999 50.9355 87.6727 50.8431 89.0183C50.7045 90.5959 50.2194 92.0807 49.6881 93.5423C48.8334 95.8623 47.9787 98.1823 47.4474 100.618C47.1933 101.732 46.9623 102.822 46.7082 103.936C46.662 104.075 46.6389 104.237 46.7082 104.423C46.9392 104.353 47.0778 104.168 47.2395 104.005C47.8401 103.402 48.3945 102.776 48.9489 102.126C50.2425 100.641 51.513 99.1335 52.8297 97.6487C53.13 97.2775 53.4303 96.9063 53.7999 96.5583C54.054 96.3263 54.3543 96.1871 54.7008 96.1175C55.1397 96.0015 55.44 96.3031 55.3014 96.7439C55.2321 96.9991 55.0473 97.2775 54.8856 97.4863C53.8461 98.9015 52.6911 100.247 51.5823 101.639C50.6121 102.753 49.6188 103.889 48.6717 105.049C48.3021 105.537 47.8863 105.954 47.3781 106.279C46.0383 107.184 44.0748 106.952 42.9891 105.792C42.8505 105.606 42.6888 105.421 42.5733 105.189C42.1575 104.377 41.9496 103.495 41.9034 102.567C41.8572 99.7135 42.3885 97.0223 43.3587 94.4239C43.659 93.5191 43.9824 92.6607 44.3289 91.8023C44.3751 91.6631 44.4675 91.5007 44.3982 91.3151C44.2596 91.3615 44.1441 91.5007 44.0748 91.5703C42.4809 93.1479 40.9563 94.8183 39.6165 96.6279C38.1612 98.5303 36.8214 100.549 35.5971 102.613C35.3661 102.985 35.1582 103.356 34.9272 103.727C34.6269 104.168 34.3959 104.632 34.2573 105.142C34.0263 105.885 33.4488 106.233 32.7789 106.441C31.9242 106.743 31.0233 106.697 30.1686 106.395C29.9838 106.325 29.8452 106.256 29.6373 106.14C29.1522 105.838 28.9212 105.328 29.106 104.748C29.4525 103.82 29.6604 102.845 30.0069 101.894C30.9309 99.0407 31.878 96.1639 32.8482 93.3335C34.6731 88.0671 36.498 82.8239 38.3691 77.5807C38.9928 75.8175 39.6396 74.0543 40.2633 72.3143C40.3326 72.1287 40.4019 71.8967 40.4943 71.7111C40.6791 71.1775 41.0256 70.8527 41.5338 70.6671C42.6888 70.2263 43.8438 70.1799 44.9988 70.6671C45.1374 70.7367 45.2991 70.8063 45.4146 70.8991C45.8304 71.2007 46.0383 71.6183 45.8535 72.1287C45.7149 72.5463 45.5994 72.9407 45.4377 73.3583C43.9131 77.9287 42.3423 82.4527 40.7946 86.9999C40.1247 88.9719 39.4086 90.9671 38.7387 92.9391C38.6694 93.0551 38.6232 93.1711 38.6001 93.3103C38.5308 93.4263 38.5308 93.4263 38.577 93.4495Z" fill="#006633"/>
<path d="M58.3505 101.268C58.3043 101.941 58.4198 102.66 58.6739 103.356C58.7432 103.657 58.9049 103.913 59.0435 104.168C59.3438 104.585 59.6672 104.771 60.1985 104.701C61.1225 104.562 62.0234 104.214 62.8781 103.843C64.8416 102.985 66.6434 101.894 68.3066 100.549C69.9005 99.2726 71.5406 98.043 73.1114 96.7438C73.481 96.4422 73.8968 96.187 74.405 96.1406C74.5436 96.0942 74.7053 96.0942 74.8439 96.1406C75.1904 96.2798 75.2828 96.5582 75.1442 96.883C75.0749 97.0686 74.9132 97.2542 74.7746 97.4166C73.9199 98.275 73.019 99.0174 72.095 99.783C69.8312 101.569 67.5212 103.309 65.0957 104.91C63.8021 105.838 62.3468 106.441 60.7298 106.743C58.8587 107.114 57.1262 106.882 55.4861 105.885C54.4004 105.212 53.615 104.284 53.1299 103.077C52.7834 102.173 52.5986 101.245 52.5986 100.27C52.5986 99.3654 52.7141 98.4838 52.9682 97.6254C53.6381 95.2358 54.7931 93.1478 56.4332 91.315C57.4727 90.155 58.6739 89.1806 60.0368 88.4382C61.238 87.8118 62.4854 87.3942 63.8714 87.2318C64.9109 87.1158 65.9504 87.1622 66.9668 87.4174C67.7522 87.603 68.4914 87.835 69.092 88.3918C69.8081 88.995 70.247 89.7374 70.247 90.7118C70.247 91.2686 70.1777 91.7558 69.9929 92.2894C69.6464 93.4494 69.1382 94.4934 68.4221 95.4214C66.782 97.5558 64.703 98.7854 62.0465 99.087C60.9608 99.203 59.852 99.2726 58.7663 99.1334C58.5353 99.087 58.466 99.203 58.4429 99.3886C58.4198 99.9686 58.3505 100.572 58.3505 101.268ZM65.0957 91.0366C65.0495 90.8974 65.0264 90.7118 65.0264 90.5494C64.9802 90.3638 64.8878 90.3174 64.7723 90.4102C64.6568 90.4102 64.5875 90.4566 64.5182 90.4798C63.8021 90.851 63.1784 91.2918 62.624 91.8254C61.6076 92.7998 60.7991 93.9134 60.1292 95.1198C59.8289 95.6534 59.5748 96.1638 59.39 96.6974C59.2745 96.9294 59.3207 96.999 59.5748 96.9526C59.8751 96.9062 60.1754 96.8366 60.4757 96.8134C61.2842 96.6742 62.0003 96.3262 62.6009 95.723C63.5711 94.795 64.3796 93.7046 64.8647 92.4286C64.9802 91.9646 65.0033 91.5238 65.0957 91.0366Z" fill="#006633"/>
<path d="M89.5817 106.697C88.8656 106.743 88.1264 106.65 87.4334 106.465C85.493 105.977 84.2687 104.748 83.645 102.845C83.0906 101.059 83.1137 99.2959 83.645 97.4863C84.4535 94.7255 85.9088 92.2895 88.034 90.3175C89.6279 88.8327 91.5452 87.8815 93.7397 87.5567C94.964 87.3711 96.1652 87.3247 97.3895 87.6263C98.4983 87.9279 99.3992 88.5311 100.069 89.5055C100.439 90.1087 100.623 90.7351 100.623 91.4775C100.623 93.0087 100.069 94.3311 98.9834 95.3751C97.8977 96.4191 96.5579 96.6047 95.1488 96.1639C94.964 96.1175 94.8023 96.0247 94.6637 95.9087C94.2479 95.6071 94.1786 95.2359 94.4096 94.7951C94.5251 94.5631 94.7099 94.3775 94.8947 94.1687C95.6801 93.1479 95.8187 92.0343 95.5646 90.8511C95.4491 90.3175 95.3798 90.3175 94.964 90.5959C93.9476 91.2223 93.0698 91.9879 92.3537 92.9159C90.7829 95.0039 89.6741 97.3239 89.1197 99.8991C88.9349 100.92 88.8194 101.917 89.0042 102.938C89.0735 103.379 89.2352 103.843 89.4893 104.237C89.7203 104.585 89.9744 104.725 90.3902 104.771C91.5452 104.817 92.6309 104.469 93.6242 103.982C94.733 103.425 95.7725 102.776 96.7889 102.08C98.9372 100.479 101.062 98.8319 103.234 97.2079C103.673 96.8367 104.158 96.5351 104.758 96.4191C104.989 96.3727 105.197 96.3495 105.382 96.4191C105.752 96.5351 105.913 96.8367 105.729 97.2079C105.613 97.4399 105.474 97.6255 105.29 97.7647C104.366 98.6231 103.395 99.4119 102.379 100.224C100.623 101.685 98.7755 103.031 96.8582 104.307C94.9871 105.606 92.9543 106.511 90.6443 106.743C90.2978 106.743 89.9744 106.697 89.5817 106.697Z" fill="#008E39"/>
<path d="M103.604 100.108C103.65 97.347 104.273 94.911 105.567 92.707C106.006 91.9878 106.491 91.315 107.138 90.8046C107.946 90.1782 108.847 89.8302 109.864 89.8766C110.118 89.8766 110.303 89.807 110.464 89.6214C111.55 88.1366 113.075 87.4174 114.83 87.1622C116.101 86.9766 117.371 87.0462 118.549 87.5334C120.12 88.2062 120.975 89.4126 121.275 91.0598C121.529 92.475 121.46 93.9134 121.136 95.2822C120.882 96.3262 120.605 97.3702 120.236 98.391C120.189 98.4374 120.189 98.4606 120.166 98.5302C120.12 98.6694 120.212 98.7158 120.305 98.7158C120.536 98.7158 120.744 98.6694 120.975 98.6462C122.684 98.391 124.37 98.0198 125.964 97.4166C126.519 97.1846 127.05 96.9758 127.558 96.7902C127.905 96.651 128.228 96.6046 128.575 96.535C128.713 96.535 128.921 96.535 129.106 96.5814C129.476 96.6974 129.637 96.999 129.406 97.3702C129.221 97.695 128.921 97.9734 128.552 98.159C128.136 98.391 127.697 98.5998 127.258 98.7854C125.502 99.5046 123.677 99.899 121.829 100.201C121.09 100.34 120.351 100.433 119.589 100.549C119.404 100.595 119.242 100.665 119.173 100.804C118.503 102.08 117.648 103.24 116.678 104.284C115.408 105.629 113.952 106.743 112.174 107.277C109.979 107.88 107.923 107.578 106.098 106.233C105.197 105.56 104.689 104.655 104.273 103.657C103.788 102.405 103.627 101.152 103.604 100.108ZM109.563 96.9062C109.448 97.5326 109.425 98.0662 109.379 98.5998C109.309 100.061 109.494 101.453 109.864 102.869C110.002 103.425 110.21 104.029 110.487 104.562C110.672 104.864 110.718 104.864 111.019 104.701C112.127 104.098 113.075 103.24 113.86 102.265C114.23 101.778 114.599 101.291 114.899 100.781C115.015 100.549 115.015 100.525 114.784 100.456C114.553 100.409 114.345 100.386 114.068 100.317C112.659 99.8758 111.388 99.1566 110.349 97.9966C110.072 97.6486 109.841 97.3006 109.563 96.9062ZM114.091 94.795C114.091 94.911 114.091 95.027 114.091 95.143C114.137 96.0014 114.391 96.7902 114.876 97.5094C115.13 97.8342 115.431 98.1126 115.8 98.2982C115.939 98.4142 116.054 98.3678 116.147 98.1822C116.193 98.043 116.262 97.8574 116.332 97.6486C116.586 96.8598 116.771 96.0478 116.955 95.2126C117.094 94.2846 117.256 93.3102 117.094 92.2894C116.978 91.663 116.863 91.0134 116.54 90.4102C116.47 90.2246 116.309 90.0854 116.17 89.923C116.054 89.807 115.939 89.807 115.823 89.923C115.708 90.039 115.592 90.155 115.477 90.271C114.553 91.6166 114.206 93.1942 114.091 94.795Z" fill="#008E39"/>
<path d="M134.165 94.5863C134.234 94.5863 134.28 94.5167 134.303 94.4703C135.505 92.9855 136.798 91.5935 138.138 90.2479C139.339 89.0879 140.679 88.1599 142.227 87.6263C143.312 87.2551 144.421 87.1855 145.507 87.5103C145.992 87.6263 146.408 87.8583 146.777 88.1831C147.193 88.5543 147.309 89.0879 147.262 89.6447C147.216 90.5031 147.008 91.3615 146.731 92.1967C146.292 93.6119 145.692 94.9343 145.137 96.2799C144.537 97.7415 143.936 99.2031 143.382 100.688C142.966 101.732 142.712 102.822 142.527 103.936C142.481 104.168 142.458 104.377 142.481 104.609C142.666 104.655 142.735 104.539 142.85 104.47C143.52 103.913 144.144 103.263 144.791 102.59C146.2 100.99 147.586 99.3655 148.995 97.7647C149.295 97.3935 149.619 97.0223 150.081 96.7439C150.381 96.6047 150.681 96.4423 151.005 96.4423C151.42 96.4423 151.605 96.6743 151.444 97.0687C151.374 97.3007 151.213 97.5095 151.074 97.6951C149.965 99.1103 148.81 100.549 147.563 101.918C146.639 102.962 145.692 104.006 144.837 105.096C144.398 105.63 143.936 106.117 143.382 106.511C142.18 107.323 140.448 107.323 139.293 106.395C138.484 105.722 138.022 104.818 137.953 103.75C137.907 102.034 138.207 100.34 138.739 98.6927C139.362 96.7903 139.963 94.8415 140.748 92.9623C140.933 92.5911 141.049 92.1503 141.187 91.7327C141.233 91.6167 141.303 91.5471 141.256 91.4079C141.118 91.3615 141.025 91.5239 140.956 91.5471C139.316 93.0783 137.861 94.7255 136.498 96.4887C134.788 98.6927 133.148 100.966 131.462 103.263C130.908 104.006 130.353 104.794 129.822 105.583C128.967 106.813 127.697 106.929 126.657 106.697C125.733 106.465 125.271 105.838 125.364 104.818C125.479 103.402 125.779 102.01 126.218 100.665C127.258 97.2543 128.413 93.8903 129.73 90.5727C129.984 89.9463 130.284 89.2735 130.584 88.6239C130.769 88.2527 131.023 87.9511 131.393 87.8119C132.686 87.2087 133.957 87.2087 135.274 87.8119C135.458 87.8815 135.62 87.9975 135.712 88.1135C135.967 88.3687 136.082 88.6703 136.059 89.0183C135.99 89.6447 135.759 90.2247 135.528 90.7815C135.043 91.9879 134.627 93.2407 134.119 94.4007C134.142 94.4935 134.095 94.5399 134.165 94.5863Z" fill="#008E39"/>
<path d="M162.439 79.3206C162.069 79.3206 161.746 79.251 161.376 79.2046C160.914 79.1582 160.914 79.135 161.076 78.7174C161.145 78.4854 161.261 78.2302 161.376 77.975L162.162 75.9566C162.485 75.1678 162.762 74.3558 162.855 73.4974C162.97 72.6854 162.67 72.1518 161.862 71.8966C161.076 71.595 160.221 71.595 159.413 71.827C159.043 71.943 158.743 72.1286 158.443 72.4302C158.096 72.755 157.819 73.1726 157.588 73.5902C157.588 73.5902 155.509 77.6734 155.139 78.555C155.024 78.903 154.839 78.9726 154.539 78.9726C139.339 78.9726 138.531 78.9726 137.699 79.019C136.29 79.135 134.904 79.3206 133.518 79.6918C132.548 79.9934 131.577 80.3878 130.723 80.991C130.168 81.4086 129.683 81.8494 129.337 82.4758C128.921 83.2182 128.99 83.8678 129.591 84.5406C130.261 85.283 131.115 85.7006 132.132 85.8166C132.455 85.8166 132.802 85.747 133.056 85.515C133.31 85.283 133.356 85.1438 133.102 84.8886C132.871 84.6566 132.871 84.6334 133.148 84.4478C133.587 84.0998 134.118 83.8446 134.65 83.6126C136.036 83.0558 137.445 82.6382 153.222 82.383C153.73 82.383 153.73 82.3134 153.592 82.8006C152.991 84.8886 152.367 86.9998 151.097 91.431C150.727 92.7302 150.496 94.0758 150.081 95.3982C149.457 97.463 148.972 99.5046 148.741 101.685C148.625 103.077 148.81 104.423 149.457 105.653C149.803 106.279 150.242 106.743 150.866 106.998C151.975 107.439 153.06 107.416 154.146 106.929C155.001 106.557 155.671 105.908 156.225 105.212C157.449 103.634 158.789 102.103 160.014 100.525C160.683 99.667 161.353 98.8318 161.977 97.9966C162.162 97.7646 162.324 97.5094 162.393 97.2078C162.508 96.7438 162.208 96.419 161.769 96.4654C161.423 96.4654 161.122 96.6046 160.868 96.7902C160.522 97.0686 160.268 97.3934 159.967 97.695C158.812 98.971 157.704 100.27 156.595 101.616C155.856 102.544 155.093 103.495 154.215 104.307C154.1 104.423 153.984 104.539 153.777 104.562C153.73 104.33 153.73 104.121 153.777 103.889C153.846 102.985 153.961 102.08 154.1 101.152C154.377 99.7366 154.816 98.3446 155.209 96.9294C156.433 92.939 158.35 86.6054 159.69 82.615C159.921 81.9886 159.806 82.0118 160.545 82.0582C161.885 82.1278 163.271 82.2206 176.669 82.1278C176.715 81.9654 176.807 81.8262 176.877 81.6638C177.292 80.875 177.847 80.3182 178.378 79.9006C176.83 79.483 173.92 79.2974 162.439 79.3206Z" fill="#008E39"/>
<path d="M165.673 101.268C165.627 101.941 165.742 102.66 166.02 103.356C166.089 103.657 166.251 103.913 166.389 104.168C166.69 104.585 167.013 104.771 167.544 104.701C168.468 104.562 169.369 104.214 170.224 103.843C172.187 102.985 173.989 101.894 175.652 100.549C177.246 99.2726 178.886 98.043 180.457 96.7438C180.827 96.4422 181.243 96.187 181.751 96.1406C181.889 96.0942 182.051 96.0942 182.19 96.1406C182.536 96.2798 182.629 96.5582 182.49 96.883C182.421 97.0686 182.259 97.2542 182.12 97.4166C181.266 98.275 180.365 99.0174 179.441 99.783C177.177 101.569 174.867 103.309 172.441 104.91C171.148 105.838 169.693 106.441 168.076 106.743C166.204 107.114 164.472 106.882 162.832 105.885C161.746 105.212 160.961 104.284 160.476 103.077C160.129 102.173 159.944 101.245 159.944 100.27C159.944 99.3654 160.06 98.4838 160.314 97.6254C160.984 95.2358 162.139 93.1478 163.779 91.315C164.818 90.155 166.02 89.1806 167.383 88.4382C168.584 87.8118 169.831 87.3942 171.217 87.2318C172.257 87.1158 173.296 87.1622 174.313 87.4174C175.098 87.603 175.837 87.835 176.438 88.3918C177.154 88.995 177.593 89.7374 177.593 90.7118C177.593 91.2686 177.523 91.7558 177.339 92.2894C176.992 93.4494 176.484 94.4934 175.768 95.4214C174.128 97.5558 172.049 98.7854 169.392 99.087C168.307 99.203 167.198 99.2726 166.112 99.1334C165.881 99.087 165.812 99.203 165.789 99.3886C165.742 99.9686 165.673 100.572 165.673 101.268ZM172.418 91.0366C172.372 90.8974 172.349 90.7118 172.349 90.5494C172.303 90.3638 172.21 90.3174 172.095 90.4102C171.979 90.4102 171.91 90.4566 171.841 90.4798C171.125 90.851 170.501 91.2918 169.947 91.8254C168.93 92.7998 168.122 93.9134 167.452 95.1198C167.152 95.6534 166.897 96.1638 166.713 96.6974C166.597 96.9294 166.643 96.999 166.897 96.9526C167.198 96.9062 167.498 96.8366 167.798 96.8134C168.607 96.6742 169.323 96.3262 169.924 95.723C170.894 94.795 171.702 93.7046 172.187 92.4286C172.303 91.9646 172.349 91.5238 172.418 91.0366Z" fill="#008E39"/>
<path d="M189.766 87.4407C191.037 87.3943 192.261 87.6959 193.37 88.4151C194.271 88.9719 194.825 89.8071 195.01 90.8511C195.126 91.4543 195.126 92.0807 194.964 92.7303C194.594 94.4239 193.67 95.6767 192.1 96.4655C191.245 96.8831 190.344 96.8831 189.466 96.6975C189.212 96.6511 188.981 96.5583 188.75 96.3959C188.311 96.0479 188.219 95.6535 188.611 95.2359C188.912 94.9343 189.143 94.6095 189.351 94.2151C189.72 93.6815 189.905 93.1015 189.974 92.4519C190.09 91.7791 189.905 91.1527 189.651 90.5495C189.582 90.3639 189.466 90.3639 189.304 90.4335C188.704 90.7351 188.219 91.1759 187.826 91.7095C187.041 92.7303 186.602 93.8903 186.417 95.1199C186.163 96.8135 186.556 98.3679 187.202 99.8991C187.618 100.757 188.011 101.616 188.473 102.474C188.611 102.845 188.658 102.845 189.027 102.613C191.591 101.152 194.086 99.6207 196.65 98.1359C197.205 97.7879 197.759 97.4631 198.337 97.1151C198.706 96.8831 199.122 96.7439 199.561 96.6279C199.792 96.5583 200.046 96.5583 200.277 96.5815C200.716 96.6511 200.878 96.9991 200.6 97.3703C200.462 97.6023 200.231 97.7879 200 97.9271C199.076 98.5535 198.129 99.1335 197.205 99.7135C194.895 101.175 192.562 102.474 190.205 103.866C190.021 103.982 189.836 104.121 189.605 104.237C189.42 104.353 189.374 104.493 189.489 104.725C189.72 105.258 189.905 105.815 190.09 106.372C190.436 107.462 190.575 108.576 190.621 109.736C190.667 112.241 188.981 114.399 186.833 115.234C184.754 116.023 182.652 115.791 180.688 114.863C179.833 114.445 179.164 113.773 178.748 112.891C178.332 112.079 178.378 111.244 178.794 110.432C179.21 109.689 179.718 109.086 180.319 108.529C181.474 107.439 182.767 106.557 184.084 105.606C184.384 105.374 184.384 105.374 184.199 105.049C183.529 103.773 182.906 102.428 182.236 101.129C181.497 99.6439 181.012 98.0663 180.827 96.4191C180.596 94.7023 181.058 93.1711 181.912 91.7559C183.368 89.3895 185.516 88.1599 188.103 87.6031C188.404 87.5335 188.658 87.4871 188.958 87.4639C189.212 87.3943 189.466 87.4407 189.766 87.4407ZM185.886 110.13C185.932 109.713 185.886 109.388 185.816 109.017C185.701 108.529 185.562 107.996 185.331 107.555C185.285 107.369 185.216 107.323 185.077 107.439C185.008 107.509 184.939 107.555 184.846 107.578C183.991 108.251 183.206 109.04 182.467 109.829C182.213 110.084 182.028 110.385 181.866 110.733C181.751 110.965 181.635 111.174 181.635 111.453C181.52 112.497 182.444 113.657 183.83 113.657C183.968 113.657 184.153 113.587 184.269 113.471C184.985 112.914 185.608 112.265 185.747 111.313C185.863 110.919 185.932 110.501 185.886 110.13Z" fill="#008E39"/>
<path d="M202.841 104.516C203.072 104.469 203.164 104.377 203.28 104.261C204.181 103.449 204.92 102.497 205.659 101.569C206.768 100.224 207.9 98.9247 209.055 97.6487C209.355 97.3471 209.609 97.0223 209.956 96.7439C210.21 96.5583 210.51 96.3959 210.857 96.3959C211.296 96.3495 211.596 96.6975 211.48 97.1383C211.411 97.4399 211.249 97.6951 211.065 97.9271C210.441 98.7855 209.771 99.6207 209.101 100.479C207.877 102.057 206.537 103.588 205.313 105.142C204.758 105.861 204.088 106.488 203.234 106.859C202.148 107.346 201.085 107.393 199.953 106.929C199.33 106.673 198.868 106.209 198.544 105.583C197.921 104.353 197.736 103.008 197.828 101.616C198.059 99.4351 198.544 97.3935 199.168 95.3287C199.584 94.0295 199.792 92.6839 200.184 91.3615C201.455 86.9071 202.079 84.8191 202.679 82.7311C202.818 82.2439 202.818 82.3135 202.31 82.3135C186.532 82.5687 185.1 82.9863 183.737 83.5431C183.206 83.7751 182.698 84.0303 182.259 84.3551C182.005 84.5407 182.005 84.5871 182.213 84.7959C182.467 85.0511 182.444 85.2135 182.166 85.4223C181.912 85.6543 181.566 85.7239 181.242 85.7239C180.226 85.6079 179.371 85.1903 178.701 84.4479C178.101 83.7751 178.032 83.1487 178.447 82.3831C178.794 81.7567 179.256 81.2927 179.833 80.8983C180.688 80.2951 181.658 79.8775 182.628 79.5991C184.014 79.2279 185.377 79.0423 186.81 78.9263C187.618 78.8799 188.45 78.8799 203.649 78.8799C203.95 78.8799 204.135 78.8103 204.25 78.4623C204.62 77.5575 206.699 73.4975 206.699 73.4975C206.93 73.0799 207.23 72.6855 207.553 72.3375C207.854 72.0359 208.154 71.8503 208.524 71.7343C209.332 71.5023 210.21 71.5023 210.972 71.8039C211.781 72.0591 212.081 72.5927 211.989 73.4047C211.873 74.2631 211.619 75.0983 211.272 75.8639L210.487 77.8823C210.372 78.1375 210.256 78.4159 210.187 78.6247C210.048 79.0423 210.048 79.0655 210.487 79.1119C210.857 79.1583 211.203 79.2279 211.573 79.2279C225.202 79.1815 226.773 79.4599 228.251 79.9703C228.921 80.2255 229.591 80.5735 230.191 81.0143C230.445 81.2463 230.723 81.5015 230.907 81.8031C231.277 82.4759 230.977 83.0327 230.191 83.0791C229.822 83.1255 229.452 83.0327 229.106 82.8471C228.089 82.2207 226.934 82.1279 225.825 81.9887C212.381 82.0583 210.995 81.9887 209.655 81.9191C208.916 81.8727 209.032 81.8495 208.801 82.4759C207.461 86.4663 205.567 92.7999 204.342 96.7903C203.927 98.2055 203.488 99.5975 203.234 101.013C203.095 101.941 202.98 102.845 202.91 103.75C202.795 104.075 202.795 104.307 202.841 104.516Z" fill="#008E39"/>
</g>
<defs>
<clipPath id="clip0_2195_127">
<rect width="231" height="116" fill="white"/>
</clipPath>
</defs>
</svg>
