<svg width="146" height="68" viewBox="0 0 146 68" fill="none" xmlns="http://www.w3.org/2000/svg">
<path d="M78.7221 29.5401L52.472 13.3377L73.2025 36.1236L43.4269 27.9355L68.7571 43.3732H3.43896V3.31625H65.9857L66.1312 3.61748L78.7221 29.543V29.5401ZM82.3028 3.31335H66.5854L66.8561 3.61458L85.8836 24.7669L82.3552 3.61458L82.3028 3.31335ZM85.2111 3.61458L94.1047 22.2007L96.3813 3.61458L96.4162 3.31335H85.0655L85.2111 3.61458ZM99.7117 3.31335L99.7583 3.61458L102.722 22.0356L107.138 11.8374V3.31335H99.7088H99.7117Z" fill="url(#paint0_linear_2130_22379)"/>
<path d="M84.8965 42.8663C85.9213 43.4485 87.109 43.741 88.4627 43.741C89.8164 43.741 90.9285 43.4079 91.9969 42.7418C93.0653 42.0756 93.8542 41.1459 94.3666 39.9468L91.4205 39.0605C91.1323 39.6774 90.7218 40.1466 90.189 40.471C89.6563 40.7954 89.0217 40.9576 88.288 40.9576C87.1498 40.9576 86.2822 40.5898 85.6884 39.8483C85.2226 39.269 84.9402 38.4986 84.8412 37.5457H94.5151C94.6315 35.9527 94.4539 34.5682 93.9823 33.3952C93.5107 32.2221 92.7916 31.3127 91.8222 30.6668C90.8528 30.0209 89.6738 29.6994 88.288 29.6994C86.9751 29.6994 85.8194 29.9948 84.8208 30.5857C83.8223 31.1765 83.0421 32.0078 82.4802 33.0795C81.9184 34.1511 81.6389 35.4139 81.6389 36.8679C81.6389 38.2147 81.9271 39.4051 82.5006 40.4391C83.0741 41.4732 83.8718 42.2841 84.8965 42.8663ZM88.4132 32.3003C89.4933 32.3003 90.288 32.6334 90.7917 33.2996C91.1497 33.7717 91.3797 34.4436 91.4874 35.3068H84.9169C85.0537 34.5392 85.3099 33.9107 85.6913 33.427C86.2852 32.6768 87.1934 32.3003 88.4132 32.3003Z" fill="black"/>
<path d="M105.077 30.7247C105.033 30.6899 104.992 30.6494 104.946 30.6175C104.084 30.0064 103.016 29.6994 101.746 29.6994C100.477 29.6994 99.3854 30.0064 98.4538 30.6175C97.5223 31.2287 96.8003 32.0628 96.2937 33.1171C95.7872 34.1714 95.531 35.3734 95.531 36.7202C95.531 38.067 95.7814 39.2459 96.285 40.303C96.7886 41.3631 97.499 42.2002 98.4131 42.8171C99.3301 43.434 100.401 43.741 101.633 43.741C102.937 43.741 104.032 43.434 104.914 42.8171C105.103 42.6839 105.278 42.539 105.446 42.3855V43.3703H108.084V25.6329H105.077V30.7218V30.7247ZM105.109 38.9997C104.882 39.6571 104.524 40.1669 104.032 40.5318C103.54 40.8968 102.893 41.0793 102.096 41.0793C101.298 41.0793 100.681 40.8852 100.177 40.5C99.6736 40.1148 99.301 39.5905 99.0564 38.9301C98.8119 38.2698 98.6926 37.5312 98.6926 36.7202C98.6926 35.9092 98.8177 35.1822 99.0623 34.5218C99.3097 33.8615 99.694 33.3343 100.215 32.9462C100.736 32.5552 101.394 32.3612 102.198 32.3612C102.957 32.3612 103.575 32.5436 104.055 32.9086C104.532 33.2735 104.888 33.7833 105.115 34.435C105.342 35.0866 105.455 35.8484 105.455 36.7202C105.455 37.592 105.342 38.3422 105.115 38.9997H105.109Z" fill="black"/>
<path d="M110.722 40.3783C110.902 40.9518 111.184 41.4934 111.563 42.0032C111.941 42.513 112.454 42.93 113.097 43.2602C113.74 43.5875 114.559 43.7526 115.548 43.7526C116.803 43.7526 117.86 43.4804 118.719 42.9329C119.181 42.6375 119.577 42.2841 119.918 41.8815V43.3674H122.556V30.0643H119.56V36.8998C119.56 37.705 119.47 38.3711 119.286 38.8954C119.106 39.4196 118.864 39.8338 118.561 40.1321C118.259 40.4305 117.924 40.6419 117.551 40.7664C117.181 40.891 116.803 40.9518 116.425 40.9518C115.714 40.9518 115.152 40.8012 114.736 40.4971C114.32 40.193 114.005 39.8048 113.796 39.3327C113.586 38.8606 113.452 38.3682 113.394 37.8556C113.336 37.3429 113.307 36.8795 113.307 36.4711V30.0672H110.285V37.4935C110.285 37.815 110.311 38.2292 110.366 38.7448C110.419 39.2574 110.538 39.802 110.719 40.3754L110.722 40.3783Z" fill="black"/>
<path d="M92.0318 49.4701L88.6752 59.115L85.307 49.4701H82.3259L87.1789 62.7732H90.1745L95.0274 49.4701H92.0318Z" fill="black"/>
<path d="M105.185 50.0667C104.215 49.4208 103.036 49.0993 101.65 49.0993C100.337 49.0993 99.1817 49.3948 98.1831 49.9856C97.1846 50.5765 96.4044 51.4077 95.8425 52.4794C95.2807 53.5511 95.0012 54.8139 95.0012 56.2679C95.0012 57.6147 95.2894 58.8051 95.8629 59.8391C96.4364 60.8731 97.2341 61.6841 98.2588 62.2663C99.2836 62.8485 100.471 63.141 101.825 63.141C103.179 63.141 104.291 62.8079 105.359 62.1417C106.428 61.4756 107.217 60.5458 107.729 59.3467L104.783 58.4604C104.495 59.0774 104.084 59.5466 103.551 59.871C103.019 60.1954 102.384 60.3576 101.65 60.3576C100.512 60.3576 99.6446 59.9897 99.0507 59.2482C98.5849 58.669 98.3025 57.8985 98.2035 56.9456H107.877C107.994 55.3526 107.816 53.9681 107.345 52.7951C106.873 51.6221 106.154 50.7126 105.185 50.0667ZM101.773 51.7003C102.853 51.7003 103.647 52.0334 104.151 52.6995C104.509 53.1716 104.739 53.8436 104.847 54.7067H98.2763C98.4131 53.9392 98.6693 53.3107 99.0507 52.827C99.6446 52.0768 100.553 51.7003 101.773 51.7003Z" fill="black"/>
<path d="M115.936 49.415C115.513 49.444 115.103 49.5222 114.704 49.6497C114.302 49.7771 113.938 49.9509 113.61 50.1739C113.222 50.4114 112.89 50.7126 112.614 51.0805C112.489 51.2485 112.375 51.4251 112.273 51.6076V49.473H109.636V62.7761H112.631V56.013C112.631 55.5032 112.692 55.0311 112.818 54.5909C112.943 54.1506 113.132 53.7596 113.394 53.415C113.653 53.0703 113.991 52.7864 114.404 52.5663C114.818 52.3201 115.281 52.1753 115.796 52.1347C116.311 52.0942 116.768 52.1319 117.164 52.2448V49.473C116.768 49.4064 116.361 49.389 115.938 49.4179L115.936 49.415Z" fill="black"/>
<path d="M126.873 55.8334C126.232 55.4859 125.382 55.1759 124.317 54.9037C123.277 54.6401 122.494 54.42 121.97 54.2375C121.446 54.0579 121.097 53.8755 120.925 53.6959C120.75 53.5163 120.666 53.2991 120.666 53.0442C120.666 52.5924 120.882 52.2419 121.309 51.9899C121.737 51.7408 122.305 51.6337 123.007 51.6771C123.74 51.7177 124.328 51.903 124.771 52.2303C125.213 52.5576 125.47 53.0066 125.545 53.5713L128.59 53.0297C128.474 52.2332 128.171 51.541 127.673 50.9472C127.178 50.3564 126.529 49.8987 125.723 49.5801C124.919 49.2586 123.996 49.0993 122.954 49.0993C121.912 49.0993 120.966 49.2644 120.18 49.5975C119.394 49.9306 118.785 50.4056 118.349 51.0196C117.912 51.6366 117.694 52.3578 117.694 53.1861C117.694 53.8523 117.839 54.4171 118.128 54.8863C118.416 55.3555 118.89 55.7581 119.551 56.0999C120.212 56.4417 121.103 56.7574 122.224 57.0557C123.231 57.3193 123.976 57.5365 124.465 57.7074C124.954 57.8783 125.269 58.0578 125.411 58.2432C125.557 58.4286 125.627 58.6719 125.627 58.976C125.627 59.4684 125.432 59.8565 125.039 60.1403C124.646 60.4242 124.093 60.5661 123.373 60.5661C122.555 60.5661 121.88 60.3778 121.341 59.9984C120.803 59.619 120.459 59.1034 120.302 58.446L117.257 58.9152C117.481 60.2533 118.107 61.2931 119.138 62.0317C120.168 62.7703 121.51 63.141 123.161 63.141C124.812 63.141 126.238 62.7587 127.216 61.994C128.194 61.2294 128.683 60.178 128.683 58.8399C128.683 58.1505 128.541 57.5626 128.256 57.0789C127.97 56.5952 127.507 56.1781 126.87 55.8276L126.873 55.8334Z" fill="black"/>
<path d="M141.068 56.9456H142.529C142.646 55.3526 142.468 53.9681 141.996 52.7951C141.525 51.6221 140.806 50.7126 139.836 50.0667C138.867 49.4208 137.688 49.0993 136.302 49.0993C134.989 49.0993 133.834 49.3948 132.835 49.9856C131.836 50.5765 131.056 51.4077 130.494 52.4794C129.933 53.5511 129.653 54.8139 129.653 56.2679C129.653 57.6147 129.941 58.8051 130.515 59.8391C131.088 60.8731 131.886 61.6841 132.911 62.2663C133.935 62.8485 135.123 63.141 136.477 63.141C137.831 63.141 138.943 62.8079 140.011 62.1417C141.079 61.4756 141.868 60.5458 142.381 59.3467L139.435 58.4604C139.146 59.0774 138.736 59.5466 138.203 59.871C137.67 60.1954 137.036 60.3576 136.302 60.3576C135.164 60.3576 134.296 59.9897 133.703 59.2482C133.237 58.669 132.954 57.8985 132.855 56.9456H141.068ZM136.424 51.7003C137.505 51.7003 138.299 52.0334 138.803 52.6995C139.161 53.1716 139.391 53.8436 139.499 54.7067H132.928C133.065 53.9392 133.321 53.3107 133.703 52.827C134.296 52.0768 135.205 51.7003 136.424 51.7003Z" fill="black"/>
<defs>
<linearGradient id="paint0_linear_2130_22379" x1="3.43896" y1="23.3433" x2="107.138" y2="23.3433" gradientUnits="userSpaceOnUse">
<stop stop-color="#E78324"/>
<stop offset="1" stop-color="#FFF200"/>
</linearGradient>
</defs>
</svg>
