<svg width="507" height="908" viewBox="0 0 507 908" fill="none" xmlns="http://www.w3.org/2000/svg">
<path opacity="0.1" d="M27.882 -29.3349L49.2376 249.063L183.061 4.00649L117.342 275.378L320.342 83.669L173.981 321.45L426.287 201.855L213.611 382.77L490.525 346.995L232.353 453.335L506.769 504.882L228.371 526.238L473.427 660.061L202.056 594.342L393.765 797.342L155.984 650.981L275.579 903.287L94.6642 690.611L130.439 967.526L24.0991 709.353L-27.4481 983.769L-48.8037 705.371L-182.627 950.428L-116.908 679.056L-319.908 870.765L-173.547 632.984L-425.853 752.579L-213.177 571.664L-490.092 607.439L-231.919 501.099L-506.335 449.552L-227.937 428.196L-472.994 294.373L-201.622 360.092L-393.331 157.092L-155.55 303.453L-275.145 51.1468L-94.2302 263.823L-130.005 -13.0915L-23.6652 245.081L27.882 -29.3349Z" fill="url(#paint0_linear_2130_22393)"/>
<defs>
<linearGradient id="paint0_linear_2130_22393" x1="27.882" y1="-29.3349" x2="-27.4481" y2="983.769" gradientUnits="userSpaceOnUse">
<stop stop-color="white"/>
<stop offset="1" stop-color="#FFAFAF"/>
</linearGradient>
</defs>
</svg>
